<?xml version="1.0" encoding="utf-8"?><!-- Uploaded to: SVG Repo, www.svgrepo.com, Generator: SVG Repo Mixer Tools -->
<svg width="800px" height="800px" viewBox="0 0 24 24" fill="none" xmlns="http://www.w3.org/2000/svg">
<path fill-rule="evenodd" clip-rule="evenodd" d="M11.25 6.31057L10.384 5.44466C8.79453 5.83517 7.42633 6.78871 6.503 8.08176L6.84107 9.34344L8.9101 10.1585L11.25 8.59862L11.25 6.31057ZM5.25 12C5.25 11.6632 5.27467 11.3321 5.3223 11.0085L6.30612 10.7449L8.32951 11.542L8.85967 14.7422L7.56573 16.0362L6.58916 16.0362C5.74804 14.9104 5.25 13.5134 5.25 12ZM8.82239 17.9568C9.76937 18.463 10.8512 18.75 12 18.75C13.2363 18.75 14.395 18.4176 15.3915 17.8374V17.1148L14.0267 15.75H9.97325L8.82239 16.9009V17.9568ZM16.5394 16.1414H17.3306C18.2202 14.998 18.75 13.5609 18.75 12C18.75 11.774 18.7389 11.5507 18.7172 11.3304L17.6993 10.7427L15.6704 11.542L15.1402 14.7422L16.5394 16.1414ZM17.6128 8.24912C16.69 6.87114 15.2734 5.85187 13.616 5.44468L12.75 6.31077L12.75 8.59862L15.0898 10.1585L16.9286 9.43415L17.6128 8.24912ZM3.75 12C3.75 7.44365 7.44365 3.75 12 3.75C16.5563 3.75 20.25 7.44365 20.25 12C20.25 16.5563 16.5563 20.25 12 20.25C7.44365 20.25 3.75 16.5563 3.75 12ZM9.81904 11.3553L10.2986 14.25H13.7013L14.1809 11.3553L12 9.90139L9.81904 11.3553Z" fill="#080341"/>
</svg>